<svg xmlns="http://www.w3.org/2000/svg" width="1500" height="1000" viewBox="0 0 1500 1000" font-family="Microsoft YaHei, PingFang SC, sans-serif">
<rect x="0" y="0" width="1500" height="1000" fill="#ffffff"/>
<rect x="70" y="300" width="190" height="270" rx="8" fill="#ffffff" stroke="#111" stroke-width="2"/>
<rect x="430" y="160" width="210" height="520" rx="8" fill="#ffffff" stroke="#111" stroke-width="2"/>
<rect x="840" y="150" width="190" height="290" rx="8" fill="#ffffff" stroke="#111" stroke-width="2"/>
<rect x="1200" y="160" width="230" height="270" rx="8" fill="#ffffff" stroke="#111" stroke-width="2"/>
<rect x="770" y="520" width="170" height="170" rx="8" fill="#ffffff" stroke="#111" stroke-width="2"/>
<rect x="1010" y="720" width="180" height="160" rx="8" fill="#ffffff" stroke="#111" stroke-width="2"/>
<rect x="992" y="608" width="16" height="14" fill="#ffffff" stroke="#111" stroke-width="1.5"/>
<rect x="948" y="737" width="14" height="28" fill="#ffffff" stroke="#111" stroke-width="1.5"/>
<rect x="978" y="737" width="14" height="28" fill="#ffffff" stroke="#111" stroke-width="1.5"/>
<polyline points="260,360 430,360" fill="none" stroke="#111" stroke-width="1.6"/>
<polygon points="430,360 419.0,364.5 419.0,355.5" fill="#111"/>
<polyline points="260,415 430,415" fill="none" stroke="#111" stroke-width="1.6"/>
<polygon points="430,415 419.0,419.5 419.0,410.5" fill="#111"/>
<polyline points="260,470 430,470" fill="none" stroke="#111" stroke-width="1.6"/>
<polygon points="430,470 419.0,474.5 419.0,465.5" fill="#111"/>
<polyline points="260,525 430,525" fill="none" stroke="#111" stroke-width="1.6"/>
<polygon points="430,525 419.0,529.5 419.0,520.5" fill="#111"/>
<polyline points="640,215 840,215" fill="none" stroke="#111" stroke-width="3.5"/>
<polygon points="840,215 829.0,219.5 829.0,210.5" fill="#111"/>
<polygon points="640,215 651.0,210.5 651.0,219.5" fill="#111"/>
<polyline points="640,255 840,255" fill="none" stroke="#111" stroke-width="1.6"/>
<polygon points="840,255 829.0,259.5 829.0,250.5" fill="#111"/>
<polyline points="640,290 840,290" fill="none" stroke="#111" stroke-width="1.6"/>
<polygon points="840,290 829.0,294.5 829.0,285.5" fill="#111"/>
<polyline points="640,325 840,325" fill="none" stroke="#111" stroke-width="1.6"/>
<polygon points="840,325 829.0,329.5 829.0,320.5" fill="#111"/>
<polyline points="640,360 840,360" fill="none" stroke="#111" stroke-width="1.6"/>
<polygon points="840,360 829.0,364.5 829.0,355.5" fill="#111"/>
<polyline points="640,395 840,395" fill="none" stroke="#111" stroke-width="1.6"/>
<polygon points="840,395 829.0,399.5 829.0,390.5" fill="#111"/>
<polyline points="1030,245 1200,245" fill="none" stroke="#111" stroke-width="3.5"/>
<polygon points="1200,245 1189.0,249.5 1189.0,240.5" fill="#111"/>
<polyline points="1030,300 1200,300" fill="none" stroke="#111" stroke-width="1.6"/>
<polygon points="1200,300 1189.0,304.5 1189.0,295.5" fill="#111"/>
<polyline points="1030,335 1200,335" fill="none" stroke="#111" stroke-width="1.6"/>
<polygon points="1200,335 1189.0,339.5 1189.0,330.5" fill="#111"/>
<polyline points="1200,380 1170,380 1170,400" fill="none" stroke="#111" stroke-width="1.6"/>
<polyline points="640,590 770,590" fill="none" stroke="#111" stroke-width="1.6"/>
<polygon points="770,590 759.0,594.5 759.0,585.5" fill="#111"/>
<polygon points="640,590 651.0,585.5 651.0,594.5" fill="#111"/>
<polyline points="640,625 770,625" fill="none" stroke="#111" stroke-width="1.6"/>
<polygon points="770,625 759.0,629.5 759.0,620.5" fill="#111"/>
<polyline points="640,660 770,660" fill="none" stroke="#111" stroke-width="1.6"/>
<polygon points="770,660 759.0,664.5 759.0,655.5" fill="#111"/>
<polyline points="940,580 1000,580 1000,604" fill="none" stroke="#111" stroke-width="1.6"/>
<polyline points="988,604 1012,604" fill="none" stroke="#111" stroke-width="1.6"/>
<polyline points="988,626 1012,626" fill="none" stroke="#111" stroke-width="1.6"/>
<polyline points="1000,626 1000,650 940,650" fill="none" stroke="#111" stroke-width="1.6"/>
<polyline points="520,680 520,790 1010,790" fill="none" stroke="#111" stroke-width="1.6"/>
<polygon points="1010,790 999.0,794.5 999.0,785.5" fill="#111"/>
<polyline points="585,680 585,825 1010,825" fill="none" stroke="#111" stroke-width="1.6"/>
<polygon points="1010,825 999.0,829.5 999.0,820.5" fill="#111"/>
<polygon points="585,680 589.5,691.0 580.5,691.0" fill="#111"/>
<polyline points="955,790 955,765" fill="none" stroke="#111" stroke-width="1.6"/>
<polyline points="955,737 955,724" fill="none" stroke="#111" stroke-width="1.6"/>
<polyline points="985,825 985,765" fill="none" stroke="#111" stroke-width="1.6"/>
<polyline points="985,737 985,724" fill="none" stroke="#111" stroke-width="1.6"/>
<polyline points="945,724 995,724" fill="none" stroke="#111" stroke-width="1.6"/>
<polyline points="1190,815 1230,815" fill="none" stroke="#111" stroke-width="1.6"/>
<polyline points="806,223 818,207" fill="none" stroke="#111" stroke-width="1.6"/>
<polyline points="1164,253 1176,237" fill="none" stroke="#111" stroke-width="1.6"/>
<polyline points="1170,400 1170,410" fill="none" stroke="#111" stroke-width="1.6"/>
<polyline points="1158,410 1182,410" fill="none" stroke="#111" stroke-width="1.6"/>
<polyline points="1162,415 1178,415" fill="none" stroke="#111" stroke-width="1.6"/>
<polyline points="1166,420 1174,420" fill="none" stroke="#111" stroke-width="1.6"/>
<polyline points="1230,815 1230,825" fill="none" stroke="#111" stroke-width="1.6"/>
<polyline points="1218,825 1242,825" fill="none" stroke="#111" stroke-width="1.6"/>
<polyline points="1222,830 1238,830" fill="none" stroke="#111" stroke-width="1.6"/>
<polyline points="1226,835 1234,835" fill="none" stroke="#111" stroke-width="1.6"/>
<text x="750" y="60" font-size="26" text-anchor="middle" font-weight="bold" fill="#111">80C31 实时钟系统硬件模块连接框图</text>
<text x="165" y="332" font-size="16" text-anchor="middle" font-weight="bold" fill="#111">按键</text>
<text x="252" y="364" font-size="13" text-anchor="end" fill="#111">清除</text>
<text x="252" y="419" font-size="13" text-anchor="end" fill="#111">启停</text>
<text x="252" y="474" font-size="13" text-anchor="end" fill="#111">换挡</text>
<text x="252" y="529" font-size="13" text-anchor="end" fill="#111">加数</text>
<text x="165" y="594" font-size="12" text-anchor="middle" fill="#555">各键另一端接 GND</text>
<text x="535" y="192" font-size="20" text-anchor="middle" font-weight="bold" fill="#111">80C31</text>
<text x="535" y="216" font-size="12" text-anchor="middle" fill="#555">单片机</text>
<text x="535" y="444" font-size="11" text-anchor="middle" fill="#555">(时钟/复位电路未画出)</text>
<text x="438" y="364" font-size="13" text-anchor="start" fill="#111">P3.2</text>
<text x="438" y="419" font-size="13" text-anchor="start" fill="#111">P3.3</text>
<text x="438" y="474" font-size="13" text-anchor="start" fill="#111">P3.4</text>
<text x="438" y="529" font-size="13" text-anchor="start" fill="#111">P3.5</text>
<text x="632" y="219" font-size="13" text-anchor="end" fill="#111">P0.0~P0.7</text>
<text x="632" y="259" font-size="13" text-anchor="end" fill="#111">P2.0</text>
<text x="632" y="294" font-size="13" text-anchor="end" fill="#111">P2.1</text>
<text x="632" y="329" font-size="13" text-anchor="end" fill="#111">P2.7</text>
<text x="632" y="364" font-size="13" text-anchor="end" fill="#111">P3.6(/WR)</text>
<text x="632" y="399" font-size="13" text-anchor="end" fill="#111">P3.7(/RD)</text>
<text x="632" y="594" font-size="13" text-anchor="end" fill="#111">P1.0</text>
<text x="632" y="629" font-size="13" text-anchor="end" fill="#111">P1.1</text>
<text x="632" y="664" font-size="13" text-anchor="end" fill="#111">P1.2</text>
<text x="512" y="700" font-size="13" text-anchor="end" fill="#111">P1.3</text>
<text x="577" y="700" font-size="13" text-anchor="end" fill="#111">P1.4</text>
<text x="935" y="180" font-size="18" text-anchor="middle" font-weight="bold" fill="#111">8255A</text>
<text x="935" y="201" font-size="12" text-anchor="middle" fill="#555">并行接口</text>
<text x="848" y="219" font-size="13" text-anchor="start" fill="#111">D0~D7</text>
<text x="848" y="259" font-size="13" text-anchor="start" fill="#111">A0</text>
<text x="848" y="294" font-size="13" text-anchor="start" fill="#111">A1</text>
<text x="848" y="329" font-size="13" text-anchor="start" fill="#111">/CS</text>
<text x="848" y="364" font-size="13" text-anchor="start" fill="#111">/WR</text>
<text x="848" y="399" font-size="13" text-anchor="start" fill="#111">/RD</text>
<text x="1022" y="249" font-size="13" text-anchor="end" fill="#111">PA0~PA7</text>
<text x="1022" y="304" font-size="13" text-anchor="end" fill="#111">PC0</text>
<text x="1022" y="339" font-size="13" text-anchor="end" fill="#111">PC1</text>
<text x="935" y="464" font-size="13" text-anchor="middle" fill="#111">PA口=0x7C00   PC口=0x7E00   控制口=0x7F00</text>
<text x="935" y="484" font-size="12" text-anchor="middle" fill="#555">P2.7 经高位地址直接译码选通,低 8 位地址不锁存</text>
<text x="1315" y="192" font-size="18" text-anchor="middle" font-weight="bold" fill="#111">LCD1602</text>
<text x="1315" y="214" font-size="12" text-anchor="middle" fill="#555">字符液晶(只写)</text>
<text x="1208" y="249" font-size="13" text-anchor="start" fill="#111">D0~D7</text>
<text x="1208" y="304" font-size="13" text-anchor="start" fill="#111">RS</text>
<text x="1208" y="339" font-size="13" text-anchor="start" fill="#111">E</text>
<text x="1208" y="384" font-size="13" text-anchor="start" fill="#111">R/W</text>
<text x="855" y="550" font-size="16" text-anchor="middle" font-weight="bold" fill="#111">DS1302</text>
<text x="855" y="570" font-size="12" text-anchor="middle" fill="#555">实时时钟</text>
<text x="778" y="594" font-size="13" text-anchor="start" fill="#111">I/O</text>
<text x="778" y="629" font-size="13" text-anchor="start" fill="#111">SCLK</text>
<text x="778" y="664" font-size="13" text-anchor="start" fill="#111">CE</text>
<text x="932" y="584" font-size="13" text-anchor="end" fill="#111">X1</text>
<text x="932" y="654" font-size="13" text-anchor="end" fill="#111">X2</text>
<text x="1018" y="622" font-size="12" text-anchor="start" fill="#111">32.768kHz</text>
<text x="1100" y="748" font-size="16" text-anchor="middle" font-weight="bold" fill="#111">24C02</text>
<text x="1100" y="768" font-size="12" text-anchor="middle" fill="#555">E²PROM</text>
<text x="1018" y="794" font-size="13" text-anchor="start" fill="#111">SCL</text>
<text x="1018" y="829" font-size="13" text-anchor="start" fill="#111">SDA</text>
<text x="1182" y="819" font-size="13" text-anchor="end" fill="#111">A0~A2 / WP</text>
<text x="970" y="712" font-size="12" text-anchor="middle" font-weight="bold" fill="#111">+5V</text>
<text x="938" y="755" font-size="11" text-anchor="end" fill="#555">上拉电阻</text>
<text x="720" y="200" font-size="13" text-anchor="middle" fill="#111">数据总线 D0~D7</text>
<text x="822" y="212" font-size="12" text-anchor="start" fill="#111">8</text>
<text x="1105" y="230" font-size="13" text-anchor="middle" fill="#111">PA0~PA7</text>
<text x="1180" y="242" font-size="12" text-anchor="start" fill="#111">8</text>
</svg>